<svg xmlns="http://www.w3.org/2000/svg" viewBox="0 0 1280 720" width="1280" height="720">
  <defs>
    <linearGradient id="titleGrad" x1="0%" y1="0%" x2="100%" y2="0%">
      <stop offset="0%" stop-color="#1565C0" />
      <stop offset="100%" stop-color="#42A5F5" />
    </linearGradient>
    <radialGradient id="bgGlow1" cx="20%" cy="30%" r="55%">
      <stop offset="0%" stop-color="#1565C0" stop-opacity="0.32" />
      <stop offset="100%" stop-color="#1565C0" stop-opacity="0" />
    </radialGradient>
    <radialGradient id="bgGlow2" cx="80%" cy="80%" r="50%">
      <stop offset="0%" stop-color="#FF9800" stop-opacity="0.18" />
      <stop offset="100%" stop-color="#FF9800" stop-opacity="0" />
    </radialGradient>
    <linearGradient id="accentBar" x1="0%" y1="0%" x2="100%" y2="0%">
      <stop offset="0%" stop-color="#FF9800" />
      <stop offset="100%" stop-color="#FFB74D" />
    </linearGradient>
  </defs>

  <g id="bg-base">
    <rect width="1280" height="720" fill="#0F1419" />
    <rect width="1280" height="720" fill="url(#bgGlow1)" />
    <rect width="1280" height="720" fill="url(#bgGlow2)" />
  </g>

  <g id="bg-decoration">
    <circle cx="180" cy="160" r="2" fill="#42A5F5" fill-opacity="0.6" />
    <circle cx="1100" cy="200" r="2" fill="#FF9800" fill-opacity="0.5" />
    <circle cx="1180" cy="540" r="2" fill="#42A5F5" fill-opacity="0.5" />
    <circle cx="220" cy="600" r="1.5" fill="#FF9800" fill-opacity="0.6" />
    <circle cx="900" cy="120" r="1.5" fill="#42A5F5" fill-opacity="0.4" />
    <line x1="60" y1="660" x2="220" y2="660" stroke="#1565C0" stroke-width="1" stroke-opacity="0.5" />
    <line x1="1060" y1="660" x2="1220" y2="660" stroke="#1565C0" stroke-width="1" stroke-opacity="0.5" />
  </g>

  <g id="cover-eyebrow">
    <path fill="url(#accentBar)" d="M62,170 H64 A2,2 0 0 1 66,172 V204 A2,2 0 0 1 64,206 H62 A2,2 0 0 1 60,204 V172 A2,2 0 0 1 62,170 Z" />
    <text x="80" y="197" font-family="SimHei, &quot;Microsoft YaHei&quot;, Arial, sans-serif" font-size="18" font-weight="600" fill="#FF9800" letter-spacing="4">AWS DEVOPS AGENT · CHINA REGION</text>
  </g>

  <g id="cover-title-block">
    <text x="60" y="290" font-family="SimHei, &quot;Microsoft YaHei&quot;, Arial, sans-serif" font-size="60" font-weight="900" fill="#E8EAED">中国区跑通</text>
    <text x="60" y="370" font-family="SimHei, &quot;Microsoft YaHei&quot;, Arial, sans-serif" font-size="60" font-weight="900" fill="url(#titleGrad)">DevOps Agent 6C 全套能力</text>
  </g>

  <g id="cover-subtitle-block">
    <line x1="60" y1="425" x2="160" y2="425" stroke="#1565C0" stroke-width="3" />
    <text x="60" y="465" font-family="&quot;Microsoft YaHei&quot;, &quot;PingFang SC&quot;, Arial, sans-serif" font-size="26" fill="#9AA0A6">用 MCP Bridge + Skills 让原生 Agent 看见中国区</text>
  </g>

  <g id="cover-bottom-info">
    <text x="60" y="640" font-family="&quot;Microsoft YaHei&quot;, &quot;PingFang SC&quot;, Arial, sans-serif" font-size="16" font-weight="600" fill="#E8EAED">YC Chen</text>
    <text x="60" y="666" font-family="&quot;Microsoft YaHei&quot;, &quot;PingFang SC&quot;, Arial, sans-serif" font-size="14" fill="#6B7280">AWS · 内部技术评审</text>
    <text x="1220" y="640" text-anchor="end" font-family="&quot;Microsoft YaHei&quot;, &quot;PingFang SC&quot;, Arial, sans-serif" font-size="16" font-weight="600" fill="#E8EAED">2026.05</text>
    <text x="1220" y="666" text-anchor="end" font-family="Consolas, &quot;Courier New&quot;, monospace" font-size="13" fill="#6B7280">v1.0 · 3 cases verified</text>
  </g>
</svg>