<svg xmlns="http://www.w3.org/2000/svg" viewBox="0 0 1280 720" width="1280" height="720">
  <defs>
    <linearGradient id="titleGrad" x1="0%" y1="0%" x2="100%" y2="0%">
      <stop offset="0%" stop-color="#1565C0" />
      <stop offset="100%" stop-color="#42A5F5" />
    </linearGradient>
  </defs>

  <g id="bg-base">
    <rect width="1280" height="720" fill="#0F1419" />
  </g>

  <g id="page-header">
    <path fill="#FF9800" d="M62,50 H64 A2,2 0 0 1 66,52 V84 A2,2 0 0 1 64,86 H62 A2,2 0 0 1 60,84 V52 A2,2 0 0 1 62,50 Z" />
    <text x="80" y="78" font-family="&quot;Microsoft YaHei&quot;, &quot;PingFang SC&quot;, Arial, sans-serif" font-size="14" font-weight="600" fill="#FF9800" letter-spacing="3">客户场景</text>
    <text x="60" y="128" font-family="SimHei, &quot;Microsoft YaHei&quot;, Arial, sans-serif" font-size="36" font-weight="800" fill="#E8EAED">客户问的真问题：<tspan fill="#FF9800">能不能用 DevOps Agent 管</tspan> ___ ?</text>
    <text x="60" y="160" font-family="&quot;Microsoft YaHei&quot;, &quot;PingFang SC&quot;, Arial, sans-serif" font-size="16" fill="#9AA0A6">中国区 / 阿里云 / 自托管 K8s / 私有 SaaS API — 这些都在原生 association 范围之外</text>
  </g>

  <g id="card-left">
    <path fill="#1A2332" stroke="#2D3748" stroke-width="1" d="M74,200 H611 A14,14 0 0 1 625,214 V616 A14,14 0 0 1 611,630 H74 A14,14 0 0 1 60,616 V214 A14,14 0 0 1 74,200 Z" />
    <path fill="#1565C0" fill-opacity="0.18" d="M74,200 H611 A14,14 0 0 1 625,214 V236 A14,14 0 0 1 611,250 H74 A14,14 0 0 1 60,236 V214 A14,14 0 0 1 74,200 Z" />
    <rect x="60" y="240" width="565" height="10" fill="#1A2332" />
    
  <g transform="translate(80.0, 212.0) scale(1.0833333333333333)" fill="#42A5F5">
    <path d="M10.04 4.305c2.195 -.667 4.615 -.224 6.36 1.176c1.386 1.108 2.188 2.686 2.252 4.34l.003 .212l.091 .003c2.3 .107 4.143 1.961 4.25 4.27l.004 .211c0 2.407 -1.885 4.372 -4.255 4.482l-.21 .005h-11.878l-.222 -.008c-2.94 -.11 -5.317 -2.399 -5.43 -5.263l-.005 -.216c0 -2.747 2.08 -5.01 4.784 -5.417l.114 -.016l.07 -.181c.663 -1.62 2.056 -2.906 3.829 -3.518l.244 -.08z" />
  </g>
    <text x="116" y="232" font-family="SimHei, &quot;Microsoft YaHei&quot;, Arial, sans-serif" font-size="20" font-weight="700" fill="#42A5F5">Native 已支持的</text>

    <g id="card-left-row1">
      
  <g transform="translate(84.0, 280.0) scale(0.75)" fill="#4CAF50">
    <path d="M17 3.34a10 10 0 1 1 -14.995 8.984l-.005 -.324l.005 -.324a10 10 0 0 1 14.995 -8.336zm-1.293 5.953a1 1 0 0 0 -1.32 -.083l-.094 .083l-3.293 3.292l-1.293 -1.292l-.094 -.083a1 1 0 0 0 -1.403 1.403l.083 .094l2 2l.094 .083a1 1 0 0 0 1.226 0l.094 -.083l4 -4l.083 -.094a1 1 0 0 0 -.083 -1.32z" />
  </g>
      <text x="112" y="295" font-family="&quot;Microsoft YaHei&quot;, &quot;PingFang SC&quot;, Arial, sans-serif" font-size="18" fill="#E8EAED">AWS 全球区账号 — 一键关联</text>
    </g>
    <g id="card-left-row2">
      
  <g transform="translate(84.0, 335.0) scale(0.75)" fill="#4CAF50">
    <path d="M17 3.34a10 10 0 1 1 -14.995 8.984l-.005 -.324l.005 -.324a10 10 0 0 1 14.995 -8.336zm-1.293 5.953a1 1 0 0 0 -1.32 -.083l-.094 .083l-3.293 3.292l-1.293 -1.292l-.094 -.083a1 1 0 0 0 -1.403 1.403l.083 .094l2 2l.094 .083a1 1 0 0 0 1.226 0l.094 -.083l4 -4l.083 -.094a1 1 0 0 0 -.083 -1.32z" />
  </g>
      <text x="112" y="350" font-family="&quot;Microsoft YaHei&quot;, &quot;PingFang SC&quot;, Arial, sans-serif" font-size="18" fill="#E8EAED">CloudWatch / Splunk / Datadog / NewRelic</text>
    </g>
    <g id="card-left-row3">
      
  <g transform="translate(84.0, 390.0) scale(0.75)" fill="#4CAF50">
    <path d="M17 3.34a10 10 0 1 1 -14.995 8.984l-.005 -.324l.005 -.324a10 10 0 0 1 14.995 -8.336zm-1.293 5.953a1 1 0 0 0 -1.32 -.083l-.094 .083l-3.293 3.292l-1.293 -1.292l-.094 -.083a1 1 0 0 0 -1.403 1.403l.083 .094l2 2l.094 .083a1 1 0 0 0 1.226 0l.094 -.083l4 -4l.083 -.094a1 1 0 0 0 -.083 -1.32z" />
  </g>
      <text x="112" y="405" font-family="&quot;Microsoft YaHei&quot;, &quot;PingFang SC&quot;, Arial, sans-serif" font-size="18" fill="#E8EAED">GitHub / GitLab / Azure DevOps</text>
    </g>
    <g id="card-left-row4">
      
  <g transform="translate(84.0, 445.0) scale(0.75)" fill="#4CAF50">
    <path d="M17 3.34a10 10 0 1 1 -14.995 8.984l-.005 -.324l.005 -.324a10 10 0 0 1 14.995 -8.336zm-1.293 5.953a1 1 0 0 0 -1.32 -.083l-.094 .083l-3.293 3.292l-1.293 -1.292l-.094 -.083a1 1 0 0 0 -1.403 1.403l.083 .094l2 2l.094 .083a1 1 0 0 0 1.226 0l.094 -.083l4 -4l.083 -.094a1 1 0 0 0 -.083 -1.32z" />
  </g>
      <text x="112" y="460" font-family="&quot;Microsoft YaHei&quot;, &quot;PingFang SC&quot;, Arial, sans-serif" font-size="18" fill="#E8EAED">Slack / PagerDuty / ServiceNow</text>
    </g>
    <g id="card-left-row5">
      
  <g transform="translate(84.0, 500.0) scale(0.75)" fill="#4CAF50">
    <path d="M17 3.34a10 10 0 1 1 -14.995 8.984l-.005 -.324l.005 -.324a10 10 0 0 1 14.995 -8.336zm-1.293 5.953a1 1 0 0 0 -1.32 -.083l-.094 .083l-3.293 3.292l-1.293 -1.292l-.094 -.083a1 1 0 0 0 -1.403 1.403l.083 .094l2 2l.094 .083a1 1 0 0 0 1.226 0l.094 -.083l4 -4l.083 -.094a1 1 0 0 0 -.083 -1.32z" />
  </g>
      <text x="112" y="515" font-family="&quot;Microsoft YaHei&quot;, &quot;PingFang SC&quot;, Arial, sans-serif" font-size="18" fill="#E8EAED">Azure 资源</text>
    </g>
    <g id="card-left-row6">
      
  <g transform="translate(84.0, 555.0) scale(0.75)" fill="#4CAF50">
    <path d="M17 3.34a10 10 0 1 1 -14.995 8.984l-.005 -.324l.005 -.324a10 10 0 0 1 14.995 -8.336zm-1.293 5.953a1 1 0 0 0 -1.32 -.083l-.094 .083l-3.293 3.292l-1.293 -1.292l-.094 -.083a1 1 0 0 0 -1.403 1.403l.083 .094l2 2l.094 .083a1 1 0 0 0 1.226 0l.094 -.083l4 -4l.083 -.094a1 1 0 0 0 -.083 -1.32z" />
  </g>
      <text x="112" y="570" font-family="&quot;Microsoft YaHei&quot;, &quot;PingFang SC&quot;, Arial, sans-serif" font-size="18" fill="#E8EAED">6C 框架 + Webhook + Skills 三层</text>
    </g>
  </g>

  <g id="card-right">
    <path fill="#1A2332" stroke="#FF9800" stroke-width="1.5" d="M669,200 H1206 A14,14 0 0 1 1220,214 V616 A14,14 0 0 1 1206,630 H669 A14,14 0 0 1 655,616 V214 A14,14 0 0 1 669,200 Z" />
    <path fill="#FF9800" fill-opacity="0.16" d="M669,200 H1206 A14,14 0 0 1 1220,214 V236 A14,14 0 0 1 1206,250 H669 A14,14 0 0 1 655,236 V214 A14,14 0 0 1 669,200 Z" />
    <rect x="655" y="240" width="565" height="10" fill="#1A2332" />
    
  <g transform="translate(675.0, 212.0) scale(1.0833333333333333)" fill="#FF9800">
    <path d="M21.165 16a10 10 0 0 1 -8.434 5.973a1 1 0 0 0 .617 -.444a18 18 0 0 0 2.28 -5.528z" />
    <path d="M8.372 16a18 18 0 0 0 2.28 5.53a1 1 0 0 0 .616 .443a10 10 0 0 1 -8.433 -5.973z" />
    <path d="M13.57 16a16 16 0 0 1 -1.57 3.884a16 16 0 0 1 -1.57 -3.884" />
    <path d="M8.034 10a18 18 0 0 0 0 4h-5.832a10 10 0 0 1 -.002 -4z" />
    <path d="M13.952 10a16 16 0 0 1 0 4h-3.904a16 16 0 0 1 0 -4z" />
    <path d="M21.8 10a10.05 10.05 0 0 1 -.002 4h-5.832c.149 -1.329 .149 -2.67 0 -4z" />
    <path d="M11.267 2.027a1 1 0 0 0 -.615 .444a18 18 0 0 0 -2.28 5.529h-5.54a10.01 10.01 0 0 1 8.334 -5.967z" />
    <path d="M12 4.116a16 16 0 0 1 1.57 3.885h-3.14c.34 -1.317 .85 -2.6 1.53 -3.817z" />
    <path d="M12.733 2.026a10.01 10.01 0 0 1 8.435 5.974h-5.54a18 18 0 0 0 -2.28 -5.53a1 1 0 0 0 -.517 -.414z" />
  </g>
    <text x="711" y="232" font-family="SimHei, &quot;Microsoft YaHei&quot;, Arial, sans-serif" font-size="20" font-weight="700" fill="#FF9800">客户问 — 用 MCP 扩展的</text>

    <g id="card-right-row1">
      <text x="685" y="295" font-family="&quot;Microsoft YaHei&quot;, &quot;PingFang SC&quot;, Arial, sans-serif" font-size="22" font-weight="900" fill="#FF9800">①</text>
      <text x="715" y="295" font-family="&quot;Microsoft YaHei&quot;, &quot;PingFang SC&quot;, Arial, sans-serif" font-size="18" fill="#E8EAED">AWS 中国区 — 独立 partition，独立账号体系</text>
    </g>
    <g id="card-right-row2">
      <text x="685" y="350" font-family="&quot;Microsoft YaHei&quot;, &quot;PingFang SC&quot;, Arial, sans-serif" font-size="22" font-weight="900" fill="#FF9800">②</text>
      <text x="715" y="350" font-family="&quot;Microsoft YaHei&quot;, &quot;PingFang SC&quot;, Arial, sans-serif" font-size="18" fill="#E8EAED">阿里云 / 腾讯云 — 国内客户混合云常态</text>
    </g>
    <g id="card-right-row3">
      <text x="685" y="405" font-family="&quot;Microsoft YaHei&quot;, &quot;PingFang SC&quot;, Arial, sans-serif" font-size="22" font-weight="900" fill="#FF9800">③</text>
      <text x="715" y="405" font-family="&quot;Microsoft YaHei&quot;, &quot;PingFang SC&quot;, Arial, sans-serif" font-size="18" fill="#E8EAED">私有 K8s / on-prem — VPC 内不出公网</text>
    </g>
    <g id="card-right-row4">
      <text x="685" y="460" font-family="&quot;Microsoft YaHei&quot;, &quot;PingFang SC&quot;, Arial, sans-serif" font-size="22" font-weight="900" fill="#FF9800">④</text>
      <text x="715" y="460" font-family="&quot;Microsoft YaHei&quot;, &quot;PingFang SC&quot;, Arial, sans-serif" font-size="18" fill="#E8EAED">Customer-built SaaS / 内部平台 API</text>
    </g>
    <g id="card-right-row5">
      <text x="685" y="515" font-family="&quot;Microsoft YaHei&quot;, &quot;PingFang SC&quot;, Arial, sans-serif" font-size="22" font-weight="900" fill="#FF9800">⑤</text>
      <text x="715" y="515" font-family="&quot;Microsoft YaHei&quot;, &quot;PingFang SC&quot;, Arial, sans-serif" font-size="18" fill="#E8EAED">业务线工具栈 — Salesforce / Jira / 自研 CMDB</text>
    </g>

    <path fill="#0F1419" stroke="#FF9800" stroke-width="1" stroke-opacity="0.6" d="M679,548 H1196 A8,8 0 0 1 1204,556 V604 A8,8 0 0 1 1196,612 H679 A8,8 0 0 1 671,604 V556 A8,8 0 0 1 679,548 Z" />
    <text x="685" y="572" font-family="&quot;Microsoft YaHei&quot;, &quot;PingFang SC&quot;, Arial, sans-serif" font-size="14" fill="#9AA0A6">一句话：所有 native association 之外的资源</text>
    <text x="685" y="595" font-family="&quot;Microsoft YaHei&quot;, &quot;PingFang SC&quot;, Arial, sans-serif" font-size="14" fill="#FF9800" font-weight="700">→ 都需要走 MCP server 扩展点</text>
  </g>

  <g id="page-footer">
    <text x="60" y="690" font-family="&quot;Microsoft YaHei&quot;, &quot;PingFang SC&quot;, Arial, sans-serif" font-size="11" fill="#6B7280">中国区是一个具体场景；项目验证的是通用的 MCP 扩展模式</text>
    <text x="1220" y="690" text-anchor="end" font-family="Consolas, &quot;Courier New&quot;, monospace" font-size="11" fill="#6B7280">02 / 19</text>
  </g>
</svg>