<svg xmlns="http://www.w3.org/2000/svg" viewBox="0 0 1280 720" width="1280" height="720">
  <g id="bg-base">
    <rect width="1280" height="720" fill="#0F1419" />
  </g>

  <g id="page-header">
    <path fill="#FF9800" d="M62,50 H64 A2,2 0 0 1 66,52 V84 A2,2 0 0 1 64,86 H62 A2,2 0 0 1 60,84 V52 A2,2 0 0 1 62,50 Z" />
    <text x="80" y="78" font-family="&quot;Microsoft YaHei&quot;, &quot;PingFang SC&quot;, Arial, sans-serif" font-size="14" font-weight="600" fill="#FF9800" letter-spacing="3">PART 2 · 多云管理原理</text>
    <text x="60" y="128" font-family="SimHei, &quot;Microsoft YaHei&quot;, Arial, sans-serif" font-size="36" font-weight="800" fill="#E8EAED">一个 SRE 团队，三朵云 — 实际是 <tspan fill="#FF9800">6 个账号</tspan></text>
    <text x="60" y="160" font-family="&quot;Microsoft YaHei&quot;, &quot;PingFang SC&quot;, Arial, sans-serif" font-size="16" fill="#9AA0A6">DevOps Agent 跑在 us-east-1，剩下的全部都不是 native 可达 — 这是项目要解决的现实</text>
  </g>

  <g id="card-aws-global">
    <path fill="#1A2332" stroke="#1565C0" stroke-width="1.5" d="M74,220 H426 A14,14 0 0 1 440,234 V626 A14,14 0 0 1 426,640 H74 A14,14 0 0 1 60,626 V234 A14,14 0 0 1 74,220 Z" />
    <path fill="#1565C0" d="M74,220 H426 A14,3 0 0 1 440,223 V223 A14,3 0 0 1 426,226 H74 A14,3 0 0 1 60,223 V223 A14,3 0 0 1 74,220 Z" />
    <rect x="60" y="223" width="380" height="3" fill="#1565C0" />
    
  <g transform="translate(84.0, 248.0) scale(1.6666666666666667)" fill="#42A5F5">
    <path d="M10.04 4.305c2.195 -.667 4.615 -.224 6.36 1.176c1.386 1.108 2.188 2.686 2.252 4.34l.003 .212l.091 .003c2.3 .107 4.143 1.961 4.25 4.27l.004 .211c0 2.407 -1.885 4.372 -4.255 4.482l-.21 .005h-11.878l-.222 -.008c-2.94 -.11 -5.317 -2.399 -5.43 -5.263l-.005 -.216c0 -2.747 2.08 -5.01 4.784 -5.417l.114 -.016l.07 -.181c.663 -1.62 2.056 -2.906 3.829 -3.518l.244 -.08z" />
  </g>
    <text x="140" y="280" font-family="SimHei, &quot;Microsoft YaHei&quot;, Arial, sans-serif" font-size="22" font-weight="800" fill="#E8EAED">AWS 全球区</text>
    <text x="140" y="305" font-family="Consolas, &quot;Courier New&quot;, monospace" font-size="13" fill="#42A5F5">us-east-1 / us-west-2</text>

    <rect x="84" y="340" width="332" height="1" fill="#2D3748" />

    <text x="84" y="378" font-family="&quot;Microsoft YaHei&quot;, &quot;PingFang SC&quot;, Arial, sans-serif" font-size="14" fill="#6B7280">主账号</text>
    <text x="84" y="402" font-family="Consolas, &quot;Courier New&quot;, monospace" font-size="16" font-weight="700" fill="#E8EAED">034362076319</text>

    <text x="84" y="442" font-family="&quot;Microsoft YaHei&quot;, &quot;PingFang SC&quot;, Arial, sans-serif" font-size="14" fill="#6B7280">承载</text>
    <g id="aws-global-bullets">
      <circle cx="92" cy="466" r="2" fill="#42A5F5" />
      <text x="104" y="471" font-family="&quot;Microsoft YaHei&quot;, &quot;PingFang SC&quot;, Arial, sans-serif" font-size="15" fill="#E8EAED">DevOps Agent Space</text>
      <circle cx="92" cy="494" r="2" fill="#42A5F5" />
      <text x="104" y="499" font-family="&quot;Microsoft YaHei&quot;, &quot;PingFang SC&quot;, Arial, sans-serif" font-size="15" fill="#E8EAED">MCP server pods (mcp-test EKS)</text>
      <circle cx="92" cy="522" r="2" fill="#42A5F5" />
      <text x="104" y="527" font-family="&quot;Microsoft YaHei&quot;, &quot;PingFang SC&quot;, Arial, sans-serif" font-size="15" fill="#E8EAED">Webhook endpoint</text>
    </g>

    <path fill="#0F1419" stroke="#4CAF50" stroke-width="1" stroke-opacity="0.4" d="M90,568 H410 A6,6 0 0 1 416,574 V610 A6,6 0 0 1 410,616 H90 A6,6 0 0 1 84,610 V574 A6,6 0 0 1 90,568 Z" />
    
  <g transform="translate(96.0, 582.0) scale(0.8333333333333334)" fill="#4CAF50">
    <path d="M17 3.34a10 10 0 1 1 -14.995 8.984l-.005 -.324l.005 -.324a10 10 0 0 1 14.995 -8.336zm-1.293 5.953a1 1 0 0 0 -1.32 -.083l-.094 .083l-3.293 3.292l-1.293 -1.292l-.094 -.083a1 1 0 0 0 -1.403 1.403l.083 .094l2 2l.094 .083a1 1 0 0 0 1.226 0l.094 -.083l4 -4l.083 -.094a1 1 0 0 0 -.083 -1.32z" />
  </g>
    <text x="124" y="597" font-family="&quot;Microsoft YaHei&quot;, &quot;PingFang SC&quot;, Arial, sans-serif" font-size="14" font-weight="700" fill="#4CAF50">Native 可达</text>
  </g>

  <g id="card-aws-cn">
    <path fill="#1A2332" stroke="#FF9800" stroke-width="1.5" d="M464,220 H816 A14,14 0 0 1 830,234 V626 A14,14 0 0 1 816,640 H464 A14,14 0 0 1 450,626 V234 A14,14 0 0 1 464,220 Z" />
    <path fill="#FF9800" d="M464,220 H816 A14,3 0 0 1 830,223 V223 A14,3 0 0 1 816,226 H464 A14,3 0 0 1 450,223 V223 A14,3 0 0 1 464,220 Z" />
    <rect x="450" y="223" width="380" height="3" fill="#FF9800" />
    
  <g transform="translate(474.0, 248.0) scale(1.6666666666666667)" fill="#FF9800">
    <path d="M21.165 16a10 10 0 0 1 -8.434 5.973a1 1 0 0 0 .617 -.444a18 18 0 0 0 2.28 -5.528z" />
    <path d="M8.372 16a18 18 0 0 0 2.28 5.53a1 1 0 0 0 .616 .443a10 10 0 0 1 -8.433 -5.973z" />
    <path d="M13.57 16a16 16 0 0 1 -1.57 3.884a16 16 0 0 1 -1.57 -3.884" />
    <path d="M8.034 10a18 18 0 0 0 0 4h-5.832a10 10 0 0 1 -.002 -4z" />
    <path d="M13.952 10a16 16 0 0 1 0 4h-3.904a16 16 0 0 1 0 -4z" />
    <path d="M21.8 10a10.05 10.05 0 0 1 -.002 4h-5.832c.149 -1.329 .149 -2.67 0 -4z" />
    <path d="M11.267 2.027a1 1 0 0 0 -.615 .444a18 18 0 0 0 -2.28 5.529h-5.54a10.01 10.01 0 0 1 8.334 -5.967z" />
    <path d="M12 4.116a16 16 0 0 1 1.57 3.885h-3.14c.34 -1.317 .85 -2.6 1.53 -3.817z" />
    <path d="M12.733 2.026a10.01 10.01 0 0 1 8.435 5.974h-5.54a18 18 0 0 0 -2.28 -5.53a1 1 0 0 0 -.517 -.414z" />
  </g>
    <text x="530" y="280" font-family="SimHei, &quot;Microsoft YaHei&quot;, Arial, sans-serif" font-size="22" font-weight="800" fill="#E8EAED">AWS 中国区</text>
    <text x="530" y="305" font-family="Consolas, &quot;Courier New&quot;, monospace" font-size="13" fill="#FF9800">cn-north-1 · cn-northwest-1</text>

    <rect x="474" y="340" width="332" height="1" fill="#2D3748" />

    <text x="474" y="378" font-family="&quot;Microsoft YaHei&quot;, &quot;PingFang SC&quot;, Arial, sans-serif" font-size="14" fill="#6B7280">两个独立账号 (project demo focus)</text>
    <g id="cn-accounts">
      <text x="474" y="406" font-family="Consolas, &quot;Courier New&quot;, monospace" font-size="14" fill="#9AA0A6">bjs1  </text>
      <text x="528" y="406" font-family="Consolas, &quot;Courier New&quot;, monospace" font-size="14" font-weight="700" fill="#E8EAED">107422471498</text>
      <text x="700" y="406" font-family="&quot;Microsoft YaHei&quot;, &quot;PingFang SC&quot;, Arial, sans-serif" font-size="13" fill="#9AA0A6">北京</text>
      <text x="474" y="430" font-family="Consolas, &quot;Courier New&quot;, monospace" font-size="14" fill="#9AA0A6">china </text>
      <text x="528" y="430" font-family="Consolas, &quot;Courier New&quot;, monospace" font-size="14" font-weight="700" fill="#E8EAED">284567523170</text>
      <text x="700" y="430" font-family="&quot;Microsoft YaHei&quot;, &quot;PingFang SC&quot;, Arial, sans-serif" font-size="13" fill="#9AA0A6">宁夏</text>
    </g>

    <text x="474" y="466" font-family="&quot;Microsoft YaHei&quot;, &quot;PingFang SC&quot;, Arial, sans-serif" font-size="14" fill="#6B7280">承载</text>
    <g id="cn-bullets">
      <circle cx="482" cy="490" r="2" fill="#FF9800" />
      <text x="494" y="495" font-family="&quot;Microsoft YaHei&quot;, &quot;PingFang SC&quot;, Arial, sans-serif" font-size="15" fill="#E8EAED">EKS web app + RDS PostgreSQL</text>
      <circle cx="482" cy="518" r="2" fill="#FF9800" />
      <text x="494" y="523" font-family="&quot;Microsoft YaHei&quot;, &quot;PingFang SC&quot;, Arial, sans-serif" font-size="15" fill="#E8EAED">ECS Fargate ETL + DynamoDB / SQS</text>
      <circle cx="482" cy="546" r="2" fill="#FF9800" />
      <text x="494" y="551" font-family="&quot;Microsoft YaHei&quot;, &quot;PingFang SC&quot;, Arial, sans-serif" font-size="15" fill="#E8EAED">CloudWatch alarms + bridge Lambda</text>
    </g>

    <path fill="#0F1419" stroke="#FF9800" stroke-width="1" stroke-opacity="0.6" d="M480,568 H800 A6,6 0 0 1 806,574 V610 A6,6 0 0 1 800,616 H480 A6,6 0 0 1 474,610 V574 A6,6 0 0 1 480,568 Z" />
    
  <g transform="translate(486.0, 580.0) scale(0.8333333333333334)" fill="#FF9800">
    <path d="M18 6a3 3 0 0 1 3 3v9a2 2 0 0 1 -2 2h-2a2 2 0 0 1 -2 -2v-2a3 3 0 0 0 -6 0v2a2 2 0 0 1 -2 2h-2a2 2 0 0 1 -2 -2v-9a3 3 0 0 1 3 -3z" />
  </g>
    <text x="514" y="597" font-family="&quot;Microsoft YaHei&quot;, &quot;PingFang SC&quot;, Arial, sans-serif" font-size="14" font-weight="700" fill="#FF9800">需 Bridge — 项目焦点</text>
  </g>

  <g id="card-other-cloud">
    <path fill="#1A2332" stroke="#2D3748" stroke-width="1" d="M854,220 H1206 A14,14 0 0 1 1220,234 V626 A14,14 0 0 1 1206,640 H854 A14,14 0 0 1 840,626 V234 A14,14 0 0 1 854,220 Z" />
    <path fill="#6B7280" d="M854,220 H1206 A14,3 0 0 1 1220,223 V223 A14,3 0 0 1 1206,226 H854 A14,3 0 0 1 840,223 V223 A14,3 0 0 1 854,220 Z" />
    <rect x="840" y="223" width="380" height="3" fill="#6B7280" />
    
  <g transform="translate(864.0, 248.0) scale(1.6666666666666667)" fill="#9AA0A6">
    <path d="M9 20a2 2 0 0 1 -2 2h-4a1 1 0 0 1 0 -2h4v-2.997l-.343 .001a1 1 0 0 1 -.117 -.007l-.105 -.001c-2.94 -.11 -5.317 -2.399 -5.43 -5.263l-.005 -.216c0 -2.747 2.08 -5.01 4.784 -5.417l.114 -.016l.07 -.181c.663 -1.62 2.056 -2.906 3.829 -3.518l.244 -.08c2.194 -.667 4.614 -.224 6.36 1.176c1.385 1.108 2.187 2.686 2.25 4.34l.004 .212l.091 .003c2.3 .107 4.143 1.961 4.25 4.27l.004 .211c0 2.478 -1.997 4.487 -4.465 4.487h-1.535v2.996h4a1 1 0 0 1 0 2h-4a2 2 0 0 1 -2 -2v-2.997h-2v3.997a1 1 0 0 1 -2 0v-3.997h-2z" />
  </g>
    <text x="920" y="280" font-family="SimHei, &quot;Microsoft YaHei&quot;, Arial, sans-serif" font-size="22" font-weight="800" fill="#E8EAED">其他云</text>
    <text x="920" y="305" font-family="Consolas, &quot;Courier New&quot;, monospace" font-size="13" fill="#9AA0A6">阿里云 / GCP / Azure</text>

    <rect x="864" y="340" width="332" height="1" fill="#2D3748" />

    <text x="864" y="378" font-family="&quot;Microsoft YaHei&quot;, &quot;PingFang SC&quot;, Arial, sans-serif" font-size="14" fill="#6B7280">备用 / 占位（不在本次 demo 焦点）</text>

    <text x="864" y="416" font-family="&quot;Microsoft YaHei&quot;, &quot;PingFang SC&quot;, Arial, sans-serif" font-size="14" fill="#6B7280">承载</text>
    <g id="other-bullets">
      <circle cx="872" cy="440" r="2" fill="#9AA0A6" />
      <text x="884" y="445" font-family="&quot;Microsoft YaHei&quot;, &quot;PingFang SC&quot;, Arial, sans-serif" font-size="15" fill="#9AA0A6">阿里云 — alibaba-cloud-ops MCP</text>
      <circle cx="872" cy="468" r="2" fill="#9AA0A6" />
      <text x="884" y="473" font-family="&quot;Microsoft YaHei&quot;, &quot;PingFang SC&quot;, Arial, sans-serif" font-size="15" fill="#9AA0A6">GCP — k8s.yaml 中已占位</text>
      <circle cx="872" cy="496" r="2" fill="#9AA0A6" />
      <text x="884" y="501" font-family="&quot;Microsoft YaHei&quot;, &quot;PingFang SC&quot;, Arial, sans-serif" font-size="15" fill="#9AA0A6">Azure — 原生 agent 已支持</text>
    </g>

    <path fill="#0F1419" stroke="#2D3748" stroke-width="1" d="M870,568 H1190 A6,6 0 0 1 1196,574 V610 A6,6 0 0 1 1190,616 H870 A6,6 0 0 1 864,610 V574 A6,6 0 0 1 870,568 Z" />
    
  <g transform="translate(876.0, 580.0) scale(0.8333333333333334)" fill="#9AA0A6">
    <path d="M17 3.34a10 10 0 1 1 -15 8.66l.005 -.324a10 10 0 0 1 14.995 -8.336m-5.401 9.576l.052 .021l.08 .026l.08 .019l.072 .011l.117 .007l.076 -.003l.135 -.02l.082 -.02l.103 -.039l.073 -.035l.078 -.046l.06 -.042l.08 -.069l.083 -.088l.062 -.083l2 -3a1 1 0 1 0 -1.664 -1.11l-.168 .251v-1.696a1 1 0 0 0 -.883 -.993l-.117 -.007a1 1 0 0 0 -1 1v5.026l.009 .105l.02 .107l.04 .129l.048 .102l.046 .078l.042 .06l.069 .08l.088 .083l.083 .062l.09 .053z" />
  </g>
    <text x="904" y="597" font-family="&quot;Microsoft YaHei&quot;, &quot;PingFang SC&quot;, Arial, sans-serif" font-size="14" font-weight="700" fill="#9AA0A6">同模式可扩展</text>
  </g>

  <g id="page-footer">
    <text x="60" y="690" font-family="&quot;Microsoft YaHei&quot;, &quot;PingFang SC&quot;, Arial, sans-serif" font-size="11" fill="#6B7280">来源：项目仓库 chart/ + chart-aliyun/ + deploy/k8s.yaml</text>
    <text x="1220" y="690" text-anchor="end" font-family="Consolas, &quot;Courier New&quot;, monospace" font-size="11" fill="#6B7280">04 / 19</text>
  </g>
</svg>