<svg xmlns="http://www.w3.org/2000/svg" viewBox="0 0 1280 720" width="1280" height="720">
  <g id="bg-base">
    <rect width="1280" height="720" fill="#0F1419" />
  </g>

  <g id="page-header">
    <path fill="#FF9800" d="M62,50 H64 A2,2 0 0 1 66,52 V84 A2,2 0 0 1 64,86 H62 A2,2 0 0 1 60,84 V52 A2,2 0 0 1 62,50 Z" />
    <text x="80" y="78" font-family="&quot;Microsoft YaHei&quot;, &quot;PingFang SC&quot;, Arial, sans-serif" font-size="14" font-weight="600" fill="#FF9800" letter-spacing="3">职责分层</text>
    <text x="60" y="128" font-family="SimHei, &quot;Microsoft YaHei&quot;, Arial, sans-serif" font-size="36" font-weight="800" fill="#E8EAED">Webhook · MCP · Skill — 三层<tspan fill="#FF9800">缺一不可</tspan></text>
    <text x="60" y="160" font-family="&quot;Microsoft YaHei&quot;, &quot;PingFang SC&quot;, Arial, sans-serif" font-size="16" fill="#9AA0A6">客户咨询时常把这三件事混淆 — 这页给一个清晰的 SA 答疑模板</text>
  </g>

  <g id="card-webhook">
    <path fill="#1A2332" stroke="#42A5F5" stroke-width="1.5" d="M74,200 H422 A14,14 0 0 1 436,214 V616 A14,14 0 0 1 422,630 H74 A14,14 0 0 1 60,616 V214 A14,14 0 0 1 74,200 Z" />
    <path fill="#1565C0" fill-opacity="0.22" d="M74,200 H422 A14,14 0 0 1 436,214 V236 A14,14 0 0 1 422,250 H74 A14,14 0 0 1 60,236 V214 A14,14 0 0 1 74,200 Z" />
    <rect x="60" y="240" width="376" height="10" fill="#1A2332" />
    
  <g transform="translate(80.0, 212.0) scale(1.0833333333333333)" fill="#42A5F5">
    <path d="M13 2l.018 .001l.016 .001l.083 .005l.011 .002h.011l.038 .009l.052 .008l.016 .006l.011 .001l.029 .011l.052 .014l.019 .009l.015 .004l.028 .014l.04 .017l.021 .012l.022 .01l.023 .015l.031 .017l.034 .024l.018 .011l.013 .012l.024 .017l.038 .034l.022 .017l.008 .01l.014 .012l.036 .041l.026 .027l.006 .009c.12 .147 .196 .322 .218 .513l.001 .012l.002 .041l.004 .064v6h5a1 1 0 0 1 .868 1.497l-.06 .091l-8 11c-.568 .783 -1.808 .38 -1.808 -.588v-6h-5a1 1 0 0 1 -.868 -1.497l.06 -.091l8 -11l.01 -.013l.018 -.024l.033 -.038l.018 -.022l.009 -.008l.013 -.014l.04 -.036l.028 -.026l.008 -.006a1 1 0 0 1 .402 -.199l.011 -.001l.027 -.005l.074 -.013l.011 -.001l.041 -.002z" />
  </g>
    <text x="116" y="232" font-family="SimHei, &quot;Microsoft YaHei&quot;, Arial, sans-serif" font-size="20" font-weight="700" fill="#42A5F5">Webhook · 入口</text>

    <text x="80" y="290" font-family="SimHei, &quot;Microsoft YaHei&quot;, Arial, sans-serif" font-size="14" fill="#6B7280" letter-spacing="2">职责</text>
    <text x="80" y="316" font-family="&quot;Microsoft YaHei&quot;, &quot;PingFang SC&quot;, Arial, sans-serif" font-size="16" fill="#E8EAED">把外部告警变成 incident</text>
    <text x="80" y="338" font-family="&quot;Microsoft YaHei&quot;, &quot;PingFang SC&quot;, Arial, sans-serif" font-size="16" fill="#E8EAED">— Agent 自主调查的起点</text>

    <line x1="80" y1="370" x2="416" y2="370" stroke="#2D3748" stroke-width="1" />

    <text x="80" y="400" font-family="SimHei, &quot;Microsoft YaHei&quot;, Arial, sans-serif" font-size="14" fill="#6B7280" letter-spacing="2">实现</text>
    <text x="80" y="426" font-family="&quot;Microsoft YaHei&quot;, &quot;PingFang SC&quot;, Arial, sans-serif" font-size="14" fill="#E8EAED">SNS → bridge Lambda</text>
    <text x="80" y="448" font-family="&quot;Microsoft YaHei&quot;, &quot;PingFang SC&quot;, Arial, sans-serif" font-size="14" fill="#E8EAED">→ HMAC 签名 → POST</text>
    <text x="80" y="478" font-family="Consolas, &quot;Courier New&quot;, monospace" font-size="12" fill="#42A5F5">/devops-agent/webhook-url</text>

    <line x1="80" y1="510" x2="416" y2="510" stroke="#2D3748" stroke-width="1" />

    <text x="80" y="540" font-family="SimHei, &quot;Microsoft YaHei&quot;, Arial, sans-serif" font-size="14" fill="#6B7280" letter-spacing="2">缺它会怎样</text>
    <text x="80" y="568" font-family="&quot;Microsoft YaHei&quot;, &quot;PingFang SC&quot;, Arial, sans-serif" font-size="14" fill="#9AA0A6">Agent 看不到外部告警 —</text>
    <text x="80" y="588" font-family="&quot;Microsoft YaHei&quot;, &quot;PingFang SC&quot;, Arial, sans-serif" font-size="14" fill="#9AA0A6">"自主调查"无从触发</text>
    <text x="80" y="616" font-family="&quot;Microsoft YaHei&quot;, &quot;PingFang SC&quot;, Arial, sans-serif" font-size="13" font-style="italic" fill="#9AA0A6">客户须自己拉过来才有事干</text>
  </g>

  <g id="card-mcp">
    <path fill="#1A2332" stroke="#FF9800" stroke-width="1.5" d="M466,200 H814 A14,14 0 0 1 828,214 V616 A14,14 0 0 1 814,630 H466 A14,14 0 0 1 452,616 V214 A14,14 0 0 1 466,200 Z" />
    <path fill="#FF9800" fill-opacity="0.18" d="M466,200 H814 A14,14 0 0 1 828,214 V236 A14,14 0 0 1 814,250 H466 A14,14 0 0 1 452,236 V214 A14,14 0 0 1 466,200 Z" />
    <rect x="452" y="240" width="376" height="10" fill="#1A2332" />
    
  <g transform="translate(472.0, 212.0) scale(1.0833333333333333)" fill="#FF9800">
    <path d="M18 6a3 3 0 0 1 3 3v9a2 2 0 0 1 -2 2h-2a2 2 0 0 1 -2 -2v-2a3 3 0 0 0 -6 0v2a2 2 0 0 1 -2 2h-2a2 2 0 0 1 -2 -2v-9a3 3 0 0 1 3 -3z" />
  </g>
    <text x="508" y="232" font-family="SimHei, &quot;Microsoft YaHei&quot;, Arial, sans-serif" font-size="20" font-weight="700" fill="#FF9800">MCP · 能力</text>

    <text x="472" y="290" font-family="SimHei, &quot;Microsoft YaHei&quot;, Arial, sans-serif" font-size="14" fill="#6B7280" letter-spacing="2">职责</text>
    <text x="472" y="316" font-family="&quot;Microsoft YaHei&quot;, &quot;PingFang SC&quot;, Arial, sans-serif" font-size="16" fill="#E8EAED">提供 Agent 调用外部资源</text>
    <text x="472" y="338" font-family="&quot;Microsoft YaHei&quot;, &quot;PingFang SC&quot;, Arial, sans-serif" font-size="16" fill="#E8EAED">的工具（tool surface）</text>

    <line x1="472" y1="370" x2="808" y2="370" stroke="#2D3748" stroke-width="1" />

    <text x="472" y="400" font-family="SimHei, &quot;Microsoft YaHei&quot;, Arial, sans-serif" font-size="14" fill="#6B7280" letter-spacing="2">实现</text>
    <text x="472" y="426" font-family="&quot;Microsoft YaHei&quot;, &quot;PingFang SC&quot;, Arial, sans-serif" font-size="14" fill="#E8EAED">MCP server pod (EKS)</text>
    <text x="472" y="448" font-family="&quot;Microsoft YaHei&quot;, &quot;PingFang SC&quot;, Arial, sans-serif" font-size="14" fill="#E8EAED">+ VPC Lattice Private Conn</text>
    <text x="472" y="478" font-family="Consolas, &quot;Courier New&quot;, monospace" font-size="12" fill="#FF9800">aws-api-mcp-server / 任意自建</text>

    <line x1="472" y1="510" x2="808" y2="510" stroke="#2D3748" stroke-width="1" />

    <text x="472" y="540" font-family="SimHei, &quot;Microsoft YaHei&quot;, Arial, sans-serif" font-size="14" fill="#6B7280" letter-spacing="2">缺它会怎样</text>
    <text x="472" y="568" font-family="&quot;Microsoft YaHei&quot;, &quot;PingFang SC&quot;, Arial, sans-serif" font-size="14" fill="#9AA0A6">Agent 没有 tool 可调外部资源</text>
    <text x="472" y="588" font-family="&quot;Microsoft YaHei&quot;, &quot;PingFang SC&quot;, Arial, sans-serif" font-size="14" fill="#9AA0A6">— 只能看 native association</text>
    <text x="472" y="616" font-family="&quot;Microsoft YaHei&quot;, &quot;PingFang SC&quot;, Arial, sans-serif" font-size="13" font-style="italic" fill="#9AA0A6">客户私网 / 跨 partition 全靠这层</text>
  </g>

  <g id="card-skill">
    <path fill="#1A2332" stroke="#4CAF50" stroke-width="1.5" d="M858,200 H1206 A14,14 0 0 1 1220,214 V616 A14,14 0 0 1 1206,630 H858 A14,14 0 0 1 844,616 V214 A14,14 0 0 1 858,200 Z" />
    <path fill="#4CAF50" fill-opacity="0.18" d="M858,200 H1206 A14,14 0 0 1 1220,214 V236 A14,14 0 0 1 1206,250 H858 A14,14 0 0 1 844,236 V214 A14,14 0 0 1 858,200 Z" />
    <rect x="844" y="240" width="376" height="10" fill="#1A2332" />
    
  <g transform="translate(864.0, 212.0) scale(1.0833333333333333)" fill="#4CAF50">
    <path d="M17 3.34a10 10 0 1 1 -15 8.66l.005 -.324a10 10 0 0 1 14.995 -8.336m-6.293 5.953a1 1 0 0 0 -1.414 0l-2 2a1 1 0 0 0 0 1.414l2 2a1 1 0 0 0 1.414 0l.083 -.094a1 1 0 0 0 -.083 -1.32l-1.292 -1.293l1.292 -1.293a1 1 0 0 0 0 -1.414m4 0a1 1 0 0 0 -1.414 0l-.083 .094a1 1 0 0 0 .083 1.32l1.292 1.293l-1.292 1.293a1 1 0 0 0 1.414 1.414l2 -2a1 1 0 0 0 0 -1.414z" />
  </g>
    <text x="900" y="232" font-family="SimHei, &quot;Microsoft YaHei&quot;, Arial, sans-serif" font-size="20" font-weight="700" fill="#4CAF50">Skill · 策略</text>

    <text x="864" y="290" font-family="SimHei, &quot;Microsoft YaHei&quot;, Arial, sans-serif" font-size="14" fill="#6B7280" letter-spacing="2">职责</text>
    <text x="864" y="316" font-family="&quot;Microsoft YaHei&quot;, &quot;PingFang SC&quot;, Arial, sans-serif" font-size="16" fill="#E8EAED">告诉 Agent 什么场景调什么</text>
    <text x="864" y="338" font-family="&quot;Microsoft YaHei&quot;, &quot;PingFang SC&quot;, Arial, sans-serif" font-size="16" fill="#E8EAED">+ 怎么组织输出 + 加锁审核</text>

    <line x1="864" y1="370" x2="1200" y2="370" stroke="#2D3748" stroke-width="1" />

    <text x="864" y="400" font-family="SimHei, &quot;Microsoft YaHei&quot;, Arial, sans-serif" font-size="14" fill="#6B7280" letter-spacing="2">实现</text>
    <text x="864" y="426" font-family="&quot;Microsoft YaHei&quot;, &quot;PingFang SC&quot;, Arial, sans-serif" font-size="14" fill="#E8EAED">SKILL.md (markdown only)</text>
    <text x="864" y="448" font-family="&quot;Microsoft YaHei&quot;, &quot;PingFang SC&quot;, Arial, sans-serif" font-size="14" fill="#E8EAED">picker 按 description 选</text>
    <text x="864" y="478" font-family="Consolas, &quot;Courier New&quot;, monospace" font-size="12" fill="#4CAF50">agentskills.io spec 子集</text>

    <line x1="864" y1="510" x2="1200" y2="510" stroke="#2D3748" stroke-width="1" />

    <text x="864" y="540" font-family="SimHei, &quot;Microsoft YaHei&quot;, Arial, sans-serif" font-size="14" fill="#6B7280" letter-spacing="2">缺它会怎样</text>
    <text x="864" y="568" font-family="&quot;Microsoft YaHei&quot;, &quot;PingFang SC&quot;, Arial, sans-serif" font-size="14" fill="#9AA0A6">Agent 知道工具但不知何时</text>
    <text x="864" y="588" font-family="&quot;Microsoft YaHei&quot;, &quot;PingFang SC&quot;, Arial, sans-serif" font-size="14" fill="#9AA0A6">用 — 输出格式发散，approval 不约束</text>
    <text x="864" y="616" font-family="&quot;Microsoft YaHei&quot;, &quot;PingFang SC&quot;, Arial, sans-serif" font-size="13" font-style="italic" fill="#9AA0A6">实测调查质量 30% → 60%+</text>
  </g>

  <g id="bottom-quote">
    <path fill="#0F1419" stroke="#FF9800" stroke-width="1" d="M66,650 H1214 A6,6 0 0 1 1220,656 V684 A6,6 0 0 1 1214,690 H66 A6,6 0 0 1 60,684 V656 A6,6 0 0 1 66,650 Z" />
    <text x="640" y="676" text-anchor="middle" font-family="&quot;Microsoft YaHei&quot;, &quot;PingFang SC&quot;, Arial, sans-serif" font-size="14" font-weight="700" fill="#FF9800">Webhook 把告警拉过来 · MCP 把外部资源接上来 · Skill 让 Agent 知道怎么用 — 三件事各管各的</text>
  </g>

  <g id="page-footer">
    <text x="1220" y="710" text-anchor="end" font-family="Consolas, &quot;Courier New&quot;, monospace" font-size="11" fill="#6B7280">09 / 20</text>
  </g>
</svg>